<?xml version="1.0" standalone="no"?>
<!DOCTYPE svg PUBLIC "-//W3C//DTD SVG 1.1//EN" "http://www.w3.org/Graphics/SVG/1.1/DTD/svg11.dtd" >
<svg xmlns="http://www.w3.org/2000/svg">
<metadata>Generated by IcoMoon</metadata>
<defs>
<font id="bigcommerce-icons" horiz-adv-x="1024">
<font-face units-per-em="1024" ascent="960" descent="-64" />
<missing-glyph horiz-adv-x="1024" />
<glyph unicode="&#x20;" horiz-adv-x="512" d="" />
<glyph unicode="&#xe036;" glyph-name="icon-bc-search" d="M426.667 896q78 0 149.167-30.5t122.5-81.833 81.833-122.5 30.5-149.167q0-67-21.833-128.333t-62.167-111.333l242.333-242q12.333-12.333 12.333-30.333 0-18.333-12.167-30.5t-30.5-12.167q-18 0-30.333 12.333l-242 242.333q-50-40.333-111.333-62.167t-128.333-21.833q-78 0-149.167 30.5t-122.5 81.833-81.833 122.5-30.5 149.167 30.5 149.167 81.833 122.5 122.5 81.833 149.167 30.5zM426.667 810.667q-60.667 0-116-23.667t-95.333-63.667-63.667-95.333-23.667-116 23.667-116 63.667-95.333 95.333-63.667 116-23.667 116 23.667 95.333 63.667 63.667 95.333 23.667 116-23.667 116-63.667 95.333-95.333 63.667-116 23.667z" />
<glyph unicode="&#xe094;" glyph-name="icon-bc-arrow-left" d="M426.667 768q17.667 0 30.167-12.5t12.5-30.167q0-18-12.667-30.333l-225.667-225.667h665q17.667 0 30.167-12.5t12.5-30.167-12.5-30.167-30.167-12.5h-665l225.667-225.667q12.667-12.333 12.667-30.333 0-17.667-12.5-30.167t-30.167-12.5q-18 0-30.333 12.333l-298.667 298.667q-12.333 13-12.333 30.333t12.333 30.333l298.667 298.667q12.667 12.333 30.333 12.333z" />
<glyph unicode="&#xe095;" glyph-name="icon-bc-arrow-right" d="M597.333 768q18 0 30.333-12.333l298.667-298.667q12.333-12.333 12.333-30.333t-12.333-30.333l-298.667-298.667q-12.333-12.333-30.333-12.333-18.333 0-30.5 12.167t-12.167 30.5q0 18 12.333 30.333l226 225.667h-665q-17.667 0-30.167 12.5t-12.5 30.167 12.5 30.167 30.167 12.5h665l-226 225.667q-12.333 12.333-12.333 30.333 0 18.333 12.167 30.5t30.5 12.167z" />
<glyph unicode="&#xe096;" glyph-name="icon-bc-arrow-up" d="M512 853.334q18 0 30.333-12.333l298.667-298.667q12.333-12.333 12.333-30.333 0-18.333-12.167-30.5t-30.5-12.167q-18 0-30.333 12.333l-225.667 226v-665q0-17.667-12.5-30.167t-30.167-12.5-30.167 12.5-12.5 30.167v665l-225.667-226q-12.333-12.333-30.333-12.333-18.333 0-30.5 12.167t-12.167 30.5q0 18 12.333 30.333l298.667 298.667q12.333 12.333 30.333 12.333z" />
<glyph unicode="&#xe097;" glyph-name="icon-bc-arrow-down" d="M512 853.334q17.667 0 30.167-12.5t12.5-30.167v-665l225.667 226q12.333 12.333 30.333 12.333 18.333 0 30.5-12.167t12.167-30.5q0-18-12.333-30.333l-298.667-298.667q-12.333-12.333-30.333-12.333t-30.333 12.333l-298.667 298.667q-12.333 12.333-12.333 30.333 0 18.333 12.167 30.5t30.5 12.167q18 0 30.333-12.333l225.667-226v665q0 17.667 12.5 30.167t30.167 12.5z" />
<glyph unicode="&#xe114;" glyph-name="icon-bc-plus" d="M512 853.334q17.667 0 30.167-12.5t12.5-30.167v-341.333h341.333q17.667 0 30.167-12.5t12.5-30.167-12.5-30.167-30.167-12.5h-341.333v-341.333q0-17.667-12.5-30.167t-30.167-12.5-30.167 12.5-12.5 30.167v341.333h-341.333q-17.667 0-30.167 12.5t-12.5 30.167 12.5 30.167 30.167 12.5h341.333v341.333q0 17.667 12.5 30.167t30.167 12.5z" />
<glyph unicode="&#xe115;" glyph-name="icon-bc-minus" d="M128 469.334h768q17.667 0 30.167-12.5t12.5-30.167-12.5-30.167-30.167-12.5h-768q-17.667 0-30.167 12.5t-12.5 30.167 12.5 30.167 30.167 12.5z" />
<glyph unicode="&#xe116;" glyph-name="icon-bc-check" d="M896 725.334q18.333 0 30.5-12.167t12.167-30.5q0-18-12.333-30.333l-512-512q-12.333-12.333-30.333-12.333t-30.333 12.333l-256 256q-12.333 12.333-12.333 30.333 0 18.333 12.167 30.5t30.5 12.167q18 0 30.333-12.333l225.667-226 481.667 482q12.333 12.333 30.333 12.333z" />
<glyph unicode="&#xe117;" glyph-name="icon-bc-cross" d="M810.667 768q18.333 0 30.5-12.167t12.167-30.5q0-18-12.333-30.333l-268.667-268.333 268.667-268.333q12.333-12.333 12.333-30.333 0-18.333-12.167-30.5t-30.5-12.167q-18 0-30.333 12.333l-268.333 268.667-268.333-268.667q-12.333-12.333-30.333-12.333-18.333 0-30.5 12.167t-12.167 30.5q0 18 12.333 30.333l268.667 268.333-268.667 268.333q-12.333 12.333-12.333 30.333 0 18.333 12.167 30.5t30.5 12.167q18 0 30.333-12.333l268.333-268.667 268.333 268.667q12.333 12.333 30.333 12.333z" />
<glyph unicode="&#xe900;" glyph-name="icon-bc-chevron-down" d="M891.802 660.019c13.926 13.722 36.301 13.722 50.125 0s13.875-35.891 0-49.613l-404.89-400.896c-13.824-13.722-36.198-13.722-50.125 0l-404.89 400.896c-13.824 13.722-13.824 35.891 0 49.613 13.875 13.722 36.301 13.722 50.125 0l379.853-365.619 379.802 365.619z" />
<glyph unicode="&#xe901;" glyph-name="icon-bc-b-logo, dashicons-bigcommerce" d="M614.4 284.16c24.576 0 45.056 0 69.632 0 28.672 0 49.152-16.384 53.248-40.96 8.192-32.768-12.288-65.536-49.152-65.536-12.288 0-24.576 0-36.864 0-32.768 0-69.632 0-102.4 0-12.288 0-12.288 0-12.288 12.288 0 28.672 0 57.344 0 86.016 0 8.192 0 12.288 12.288 12.288 20.48-4.096 45.056-4.096 65.536-4.096 0 0 0 0 0 0zM614.4 476.672c20.48 0 45.056 0 65.536 0 36.864 0 57.344-32.768 49.152-65.536-4.096-20.48-20.48-32.768-45.056-36.864-8.192 0-12.288 0-20.48 0-36.864 0-73.728 0-110.592 0-12.288 0-12.288 0-12.288 12.288 0 24.576 0 53.248 0 77.824 0 8.192 0 12.288 12.288 12.288 16.384 0 36.864 0 61.44 0 0 0 0 0 0 0zM634.88 570.88c4.096 0 8.192 0 8.192 0 20.48 0 36.864 0 57.344 0 32.768 0 61.44-8.192 86.016-24.576 49.152-28.672 69.632-81.92 53.248-135.168-12.288-32.768-32.768-57.344-65.536-73.728-4.096 0-4.096-4.096-8.192-8.192 0 0 4.096-4.096 4.096-8.192 45.056-20.48 69.632-57.344 69.632-110.592s-20.48-94.208-65.536-118.784c-24.576-12.288-53.248-16.384-81.92-16.384-86.016 0-167.936 0-253.952 0-12.288 0-12.288 0-12.288 12.288 0 90.112 0 176.128 0 266.24 0 4.096 0 4.096 0 8.192 0 0 0 0-4.096 0 0-4.096-4.096-4.096-4.096-8.192-16.384-12.288-409.6-409.6-409.6-409.6h16.384c8.192 0 12.288 0 20.48 0 323.584 0 651.264 0 974.848 0 0 331.776 0 671.744 0 1003.52-4.096 4.096-376.832-368.64-385.024-376.832z" />
<glyph unicode="&#xe902;" glyph-name="icon-bc-arrow-solid" d="M708.608 595.456l-196.608-339.968-196.608 339.968z" />
<glyph unicode="&#xe903;" glyph-name="icon-bc-selected" d="M512 960c-282.624 0-512-229.376-512-512s229.376-512 512-512 512 229.376 512 512-229.376 512-512 512zM442.368 218.624l-229.376 229.376 86.016 86.016 139.264-139.264 282.624 282.624 90.112-86.016-368.64-372.736z" />
<glyph unicode="&#xe904;" glyph-name="icon-bc-chevron-up" d="M132.198 261.581c-13.926-13.722-36.301-13.722-50.125 0s-13.875 35.891 0 49.613l404.89 400.896c13.824 13.722 36.198 13.722 50.125 0l404.89-400.896c13.824-13.722 13.824-35.891 0-49.613-13.875-13.722-36.301-13.722-50.074 0l-379.904 365.619-379.802-365.619z" />
<glyph unicode="&#xe905;" glyph-name="icon-bc-arrow-toggle" d="M512 128.512l-507.904 507.904 86.016 86.016 421.888-417.792 421.888 417.792 86.016-86.016z" />
<glyph unicode="&#xe906;" glyph-name="icon-bc-accounts" horiz-adv-x="1463" d="M1060.571 448c100.937 0 182.126 81.92 182.126 182.857s-81.189 182.857-182.126 182.857c-100.937 0-182.857-81.92-182.857-182.857s81.92-182.857 182.857-182.857zM512 521.143c121.417 0 218.697 98.011 218.697 219.429s-97.28 219.429-218.697 219.429c-121.417 0-219.429-98.011-219.429-219.429s98.011-219.429 219.429-219.429zM1060.571 301.714c-133.851 0-402.286-67.291-402.286-201.143v-164.571h804.571v164.571c0 133.851-268.434 201.143-402.286 201.143zM512 374.857c-170.423 0-512-85.577-512-256v-182.857h512v164.571c0 62.171 24.137 171.154 173.349 253.806-63.634 13.166-125.074 20.48-173.349 20.48z" />
<glyph unicode="&#xe907;" glyph-name="icon-bc-analytics" d="M460.8 593.408v366.592c-256-25.6-460.8-245.248-460.8-512s204.8-486.4 460.8-512v366.592c-51.2 20.992-102.4 77.824-102.4 145.408s51.2 124.416 102.4 145.408zM658.432 499.2h365.568c-24.576 243.2-204.8 436.736-460.8 460.8v-366.592c51.2-15.36 77.824-50.176 95.232-94.208zM563.2 302.592v-366.592c256 24.064 436.224 217.6 460.8 460.8h-365.568c-17.408-44.032-44.032-78.848-95.232-94.208z" />
<glyph unicode="&#xe908;" glyph-name="icon-bc-cart" d="M301.176 156.863c-55.216 0-99.89-45.176-99.89-100.392s44.675-100.392 99.89-100.392c55.216 0 100.392 45.176 100.392 100.392s-45.176 100.392-100.392 100.392zM0 960v-100.392h100.392l180.706-380.988-67.765-122.98c-8.031-14.055-12.549-30.62-12.549-48.188 0-55.216 45.176-100.392 100.392-100.392h602.353v100.392h-581.271c-7.027 0-12.549 5.522-12.549 12.549l1.506 6.024 45.176 81.82h373.961c37.647 0 70.776 20.58 87.843 51.702l179.702 325.773c4.016 7.027 6.024 15.561 6.024 24.094 0 27.608-22.588 50.196-50.196 50.196h-742.4l-47.184 100.392h-164.141zM803.137 156.863c-55.216 0-99.89-45.176-99.89-100.392s44.675-100.392 99.89-100.392c55.216 0 100.392 45.176 100.392 100.392s-45.176 100.392-100.392 100.392z" />
<glyph unicode="&#xe909;" glyph-name="icon-bc-currency" horiz-adv-x="1280" d="M1152 960h-1024c-71.040 0-127.36-56.96-127.36-128l-0.64-768c0-71.040 56.96-128 128-128h1024c71.040 0 128 56.96 128 128v768c0 71.040-56.96 128-128 128zM1152 64h-1024v384h1024v-384zM1152 704h-1024v128h1024v-128z" />
<glyph unicode="&#xe90a;" glyph-name="icon-bc-gift_certificates" horiz-adv-x="1078" d="M970.105 744.421h-117.491c5.928 16.707 9.701 35.032 9.701 53.895 0 89.465-72.219 161.684-161.684 161.684-56.589 0-105.634-29.103-134.737-72.758l-26.947-36.109-26.947 36.648c-29.103 43.116-78.147 72.219-134.737 72.219-89.465 0-161.684-72.219-161.684-161.684 0-18.863 3.773-37.187 9.701-53.895h-117.491c-59.823 0-107.251-47.966-107.251-107.789l-0.539-592.842c0-59.823 47.966-107.789 107.789-107.789h862.316c59.823 0 107.789 47.966 107.789 107.789v592.842c0 59.823-47.966 107.789-107.789 107.789zM700.632 852.211c29.642 0 53.895-24.253 53.895-53.895s-24.253-53.895-53.895-53.895c-29.642 0-53.895 24.253-53.895 53.895s24.253 53.895 53.895 53.895zM377.263 852.211c29.642 0 53.895-24.253 53.895-53.895s-24.253-53.895-53.895-53.895c-29.642 0-53.895 24.253-53.895 53.895s24.253 53.895 53.895 53.895zM970.105 43.789h-862.316v107.789h862.316v-107.789zM970.105 313.263h-862.316v323.368h273.785l-112.101-152.522 87.309-63.057 182.164 247.916 182.164-247.916 87.309 63.057-112.101 152.522h273.785v-323.368z" />
<glyph unicode="&#xe90b;" glyph-name="icon-bc-import" horiz-adv-x="1843" d="M0 345.6h204.8v204.8h-204.8v-204.8zM0-64h204.8v204.8h-204.8v-204.8zM0 755.2h204.8v204.8h-204.8v-204.8zM409.6 345.6h1433.6v204.8h-1433.6v-204.8zM409.6-64h1433.6v204.8h-1433.6v-204.8zM409.6 960v-204.8h1433.6v204.8h-1433.6z" />
<glyph unicode="&#xe90c;" glyph-name="icon-bc-order_confirmation" d="M747.008 674.304l-337.408-337.408-183.808 183.296-72.192-72.192 256-256 409.6 409.6-72.192 72.704zM512 960c-282.624 0-512-229.376-512-512s229.376-512 512-512c282.624 0 512 229.376 512 512s-229.376 512-512 512zM512 38.4c-226.304 0-409.6 183.296-409.6 409.6s183.296 409.6 409.6 409.6c226.304 0 409.6-183.296 409.6-409.6s-183.296-409.6-409.6-409.6z" />
<glyph unicode="&#xe90d;" glyph-name="icon-bc-product_reviews" horiz-adv-x="983" d="M727.040 673.178l-153.6 153.6-409.6-409.6v-153.6h153.6l409.6 409.6zM848.282 794.419c15.974 15.974 15.974 41.779 0 57.754l-95.846 95.846c-15.974 15.974-41.779 15.974-57.754 0l-80.282-80.282 153.6-153.6 80.282 80.282zM0 99.84h983.040v-163.84h-983.040z" />
<glyph unicode="&#xe90e;" glyph-name="icon-bc-shipping_returns" horiz-adv-x="1408" d="M1216 704h-192v256h-896c-70.4 0-128-57.6-128-128v-704h128c0-106.24 85.76-192 192-192s192 85.76 192 192h384c0-106.24 85.76-192 192-192s192 85.76 192 192h128v320l-192 256zM320 32c-53.12 0-96 42.88-96 96s42.88 96 96 96c53.12 0 96-42.88 96-96s-42.88-96-96-96zM1184 608l125.44-160h-285.44v160h160zM1088 32c-53.12 0-96 42.88-96 96s42.88 96 96 96c53.12 0 96-42.88 96-96s-42.88-96-96-96z" />
<glyph unicode="&#xe90f;" glyph-name="icon-bc-sync" d="M512 789.333v128l-170.667-170.667 170.667-170.667v128c141.227 0 256-114.773 256-256 0-43.093-10.667-84.053-29.867-119.467l62.293-62.293c33.28 52.48 52.907 114.773 52.907 181.76 0 188.587-152.747 341.333-341.333 341.333zM512 192c-141.227 0-256 114.773-256 256 0 43.093 10.667 84.053 29.867 119.467l-62.293 62.293c-33.28-52.48-52.907-114.773-52.907-181.76 0-188.587 152.747-341.333 341.333-341.333v-128l170.667 170.667-170.667 170.667v-128z" />
<glyph unicode="&#xe910;" glyph-name="icon-bc-credentials" d="M170.667 576h682.667v-85.333h-682.667zM170.667 405.333h426.667v-85.333h-426.667z" />
<glyph unicode="&#xe911;" glyph-name="icon-bc-channel_select, icon-bc-channel" d="M170.667 362.667h170.667v170.667h-170.667v-170.667zM170.667 149.333h170.667v170.667h-170.667v-170.667zM170.667 576h170.667v170.667h-170.667v-170.667zM384 362.667h512v170.667h-512v-170.667zM384 149.333h512v170.667h-512v-170.667zM384 746.667v-170.667h512v170.667h-512z" />
<glyph unicode="&#xe912;" glyph-name="icon-bc-bigcommerce_diagnostics" d="M981.333 618.667c0-46.933-38.4-85.333-85.333-85.333-7.68 0-14.933 0.853-21.76 2.987l-151.893-151.467c2.133-6.827 2.987-14.507 2.987-22.187 0-46.933-38.4-85.333-85.333-85.333s-85.333 38.4-85.333 85.333c0 7.68 0.853 15.36 2.987 22.187l-108.8 108.8c-6.827-2.133-14.507-2.987-22.187-2.987s-15.36 0.853-22.187 2.987l-194.133-194.56c2.133-6.827 2.987-14.080 2.987-21.76 0-46.933-38.4-85.333-85.333-85.333s-85.333 38.4-85.333 85.333 38.4 85.333 85.333 85.333c7.68 0 14.933-0.853 21.76-2.987l194.56 194.133c-2.133 6.827-2.987 14.507-2.987 22.187 0 46.933 38.4 85.333 85.333 85.333s85.333-38.4 85.333-85.333c0-7.68-0.853-15.36-2.987-22.187l108.8-108.8c6.827 2.133 14.507 2.987 22.187 2.987s15.36-0.853 22.187-2.987l151.467 151.893c-2.133 6.827-2.987 14.080-2.987 21.76 0 46.933 38.4 85.333 85.333 85.333s85.333-38.4 85.333-85.333z" />
<glyph unicode="&#xe913;" glyph-name="icon-bc-undo" d="M196.923 763.077c78.769 78.769 189.046 133.908 315.077 133.908 244.185 0 448.985-196.923 448.985-448.985s-196.923-448.985-448.985-448.985c-204.8 0-378.092 141.785-433.231 338.708h118.154c47.262-133.908 173.292-220.554 315.077-220.554 181.169 0 330.831 149.662 330.831 330.831s-141.785 338.708-330.831 338.708c-94.523 0-173.292-39.385-236.308-102.4l181.169-181.169h-393.846v393.846l133.908-133.908z" />
<glyph unicode="&#xe914;" glyph-name="icon-bc-tag" horiz-adv-x="1186" d="M82.459 49.179l72.219-30.181v486.669l-130.964-315.823c-22.097-54.973 4.312-118.029 58.745-140.665v0zM1133.406 248.589l-267.318 645.12c-16.707 40.421-56.051 65.213-97.549 66.291-14.013 0-28.564-2.156-42.577-8.084l-397.204-164.379c-40.421-16.707-65.213-55.512-66.291-97.011-0.539-14.552 2.156-29.103 8.084-43.116l267.318-645.12c16.707-40.96 56.589-65.752 98.627-66.291 14.013 0 28.025 2.695 41.499 8.084l396.665 164.379c54.973 22.636 81.381 85.693 58.745 140.126v0zM370.796 636.632c-29.642 0-53.895 24.253-53.895 53.895s24.253 53.895 53.895 53.895c29.642 0 53.895-24.253 53.895-53.895s-24.253-53.895-53.895-53.895zM263.006 43.789c0-59.284 48.505-107.789 107.789-107.789h78.147l-185.937 449.482v-341.693z" />
<glyph unicode="&#xe915;" glyph-name="icon-bc-grid" d="M0 704h256v256h-256v-256zM384-64h256v256h-256v-256zM0-64h256v256h-256v-256zM0 320h256v256h-256v-256zM384 320h256v256h-256v-256zM768 960v-256h256v256h-256zM384 704h256v256h-256v-256zM768 320h256v256h-256v-256zM768-64h256v256h-256v-256z" />
<glyph unicode="&#xe916;" glyph-name="icon-bc-gear" d="M892.8 398.080c1.92 16 3.2 32.64 3.2 49.92s-1.28 33.92-3.84 49.92l108.16 84.48c9.6 7.68 12.16 21.76 6.4 32.64l-102.4 177.28c-6.4 11.52-19.84 15.36-31.36 11.52l-127.36-51.2c-26.88 20.48-55.040 37.12-86.4 49.92l-19.2 135.68c-1.92 12.8-12.8 21.76-25.6 21.76h-204.8c-12.8 0-23.040-8.96-24.96-21.76l-19.2-135.68c-31.36-12.8-60.16-30.080-86.4-49.92l-127.36 51.2c-11.52 4.48-24.96 0-31.36-11.52l-102.4-177.28c-6.4-11.52-3.84-24.96 6.4-32.64l108.16-84.48c-2.56-16-4.48-33.28-4.48-49.92s1.28-33.92 3.84-49.92l-108.16-84.48c-9.6-7.68-12.16-21.76-6.4-32.64l102.4-177.28c6.4-11.52 19.84-15.36 31.36-11.52l127.36 51.2c26.88-20.48 55.040-37.12 86.4-49.92l19.2-135.68c2.56-12.8 12.8-21.76 25.6-21.76h204.8c12.8 0 23.68 8.96 24.96 21.76l19.2 135.68c31.36 12.8 60.16 30.080 86.4 49.92l127.36-51.2c11.52-4.48 24.96 0 31.36 11.52l102.4 177.28c6.4 11.52 3.84 24.96-6.4 32.64l-106.88 84.48zM512 256c-105.6 0-192 86.4-192 192s86.4 192 192 192c105.6 0 192-86.4 192-192s-86.4-192-192-192z" />
<glyph unicode="&#xe917;" glyph-name="icon-bc-store-front" horiz-adv-x="1152" d="M1088 960h-1024v-128h1024v128zM1152 320v128l-64 320h-1024l-64-320v-128h64v-384h640v384h256v-384h128v384h64zM576 64h-384v256h384v-256z" />
<glyph unicode="&#xe918;" glyph-name="icon-bc-customize" d="M512 960c-282.738 0-512-229.262-512-512s229.262-512 512-512c47.218 0 85.333 38.116 85.333 85.333 0 22.187-8.533 42.098-22.187 57.458-13.084 14.791-21.618 34.702-21.618 56.32 0 47.218 38.116 85.333 85.333 85.333h100.693c157.013 0 284.444 127.431 284.444 284.444 0 251.449-229.262 455.111-512 455.111zM199.111 448c-47.218 0-85.333 38.116-85.333 85.333s38.116 85.333 85.333 85.333c47.218 0 85.333-38.116 85.333-85.333s-38.116-85.333-85.333-85.333zM369.778 675.556c-47.218 0-85.333 38.116-85.333 85.333s38.116 85.333 85.333 85.333c47.218 0 85.333-38.116 85.333-85.333s-38.116-85.333-85.333-85.333zM654.222 675.556c-47.218 0-85.333 38.116-85.333 85.333s38.116 85.333 85.333 85.333c47.218 0 85.333-38.116 85.333-85.333s-38.116-85.333-85.333-85.333zM824.889 448c-47.218 0-85.333 38.116-85.333 85.333s38.116 85.333 85.333 85.333c47.218 0 85.333-38.116 85.333-85.333s-38.116-85.333-85.333-85.333z" />
<glyph unicode="&#xe919;" glyph-name="icon-bc-chevron-right" d="M678.4 460.8l-365.619 379.904c-13.722 13.824-13.722 36.198 0 50.125 13.722 13.824 35.891 13.824 49.613 0l400.896-404.89c13.722-13.875 13.722-36.301 0-50.125l-400.896-404.89c-13.722-13.875-35.891-13.824-49.613 0-13.722 13.773-13.722 36.198 0 50.125l365.619 379.75z" />
<glyph unicode="&#xe91a;" glyph-name="icon-bc-chevron-left" d="M711.219 80.998c13.722-13.926 13.722-36.301 0-50.125s-35.891-13.875-49.613 0l-400.896 404.89c-13.722 13.824-13.722 36.198 0 50.125l400.896 404.89c13.722 13.824 35.891 13.824 49.613 0 13.722-13.875 13.722-36.301 0-50.125l-365.619-379.853 365.619-379.802z" />
<glyph unicode="&#xe91b;" glyph-name="icon-bc-authenticate, icon-bc-next_steps" horiz-adv-x="1536" d="M877.714 667.429h-877.714v-146.286h877.714v146.286zM877.714 960h-877.714v-146.286h877.714v146.286zM0 228.571h585.143v146.286h-585.143v-146.286zM1426.286 557.714l109.714-109.714-511.269-512-329.874 329.143 109.714 109.714 220.16-219.429 401.554 402.286z" />
<glyph unicode="&#xe91c;" glyph-name="icon-bc-dollar-sign" horiz-adv-x="569" d="M306.239 510.578c-126.854 33.564-167.649 68.267-167.649 122.311 0 62.009 56.442 105.244 150.884 105.244 99.472 0 136.355-48.356 139.707-119.467h123.501c-3.912 97.849-62.589 187.733-179.384 216.747v124.587h-167.649v-122.88c-108.413-23.893-195.59-95.573-195.59-205.369 0-131.413 106.737-196.836 262.65-234.951 139.707-34.133 167.649-84.196 167.649-137.102 0-39.253-27.383-101.831-150.884-101.831-115.119 0-160.384 52.338-166.531 119.467h-122.943c6.706-124.587 98.354-194.56 205.649-217.884v-123.449h167.649v122.311c108.972 21.049 195.59 85.333 195.59 201.956 0 161.564-135.796 216.747-262.65 250.311z" />
</font>
</defs>
</svg>
