<?xml version="1.0" encoding="utf-8"?>
<!-- Generator: Adobe Illustrator 23.0.3, SVG Export Plug-In . SVG Version: 6.00 Build 0)  -->
<svg version="1.1" id="Layer_1" xmlns="http://www.w3.org/2000/svg" xmlns:xlink="http://www.w3.org/1999/xlink" x="0px" y="0px"
	 viewBox="0 0 177 40" style="enable-background:new 0 0 177 40;" xml:space="preserve">
<style type="text/css">
	.st0{fill:#FFFFFF;}
</style>
<g>
	<path class="st0" d="M48.7,19.4c2.7,0,4.5,1.2,5.6,2.7V0.6c0-0.4-0.5-0.7-0.8-0.4L26.9,19.6h0.7c2.8,0,4.2,1.8,4.2,3.7
		c0,1.5-0.8,2.6-1.8,3.1c-0.2,0.1-0.2,0.3,0,0.4c1.2,0.5,2.1,1.8,2.1,3.4c0,2.2-1.4,3.9-4.2,3.9h-7.6c-0.2,0-0.3-0.1-0.3-0.3v-9.1
		L0.2,39.2C-0.2,39.5,0,40,0.4,40h53.4c0.2,0,0.5-0.2,0.5-0.5v-7.3c-1.4,1.3-3.3,2.2-5.6,2.2c-4.3,0-7.7-2.9-7.7-7.5
		C41,22.3,44.4,19.4,48.7,19.4z M38.1,33.9c0,0.1-0.1,0.3-0.3,0.3h-2.6c-0.1,0-0.3-0.1-0.3-0.3v-14c0-0.1,0.1-0.3,0.3-0.3h2.6
		c0.1,0,0.3,0.1,0.3,0.3V33.9z"/>
</g>
<path class="st0" d="M23.4,25.4H27c1,0,1.7-0.6,1.7-1.5S28,22.4,27,22.4h-3.7c-0.1,0-0.1,0.1-0.1,0.1v2.6
	C23.1,25.3,23.2,25.4,23.4,25.4z"/>
<path class="st0" d="M23.4,31.4h3.7c1.2,0,1.8-0.6,1.8-1.7c0-0.9-0.7-1.7-1.8-1.7h-3.7c-0.2,0-0.3,0.1-0.3,0.3V31
	C23.1,31.3,23.2,31.4,23.4,31.4z"/>
<path class="st0" d="M52,23.8c-0.7-0.9-1.9-1.7-3.3-1.7c-2.7,0-4.6,2-4.6,4.8c0,2.7,1.9,4.8,4.6,4.8c1.2,0,2.4-0.5,3-1
	c0.1,0,0.1-0.1,0.1-0.2V29c0-0.1-0.1-0.2-0.2-0.2h-3.3c-0.2,0-0.3-0.1-0.3-0.3v-2.1c0-0.2,0.1-0.3,0.3-0.3h6.1v-3.3l-1.9,1.1
	C52.2,24,52.1,23.9,52,23.8z"/>
<path class="st0" d="M56.6,26.9c0-4.5,3.2-7.5,7.3-7.5c2.7,0,4.4,1.4,5.5,3c0.1,0.1,0,0.3-0.1,0.3l-1.7,0.9c-0.1,0.1-0.2,0-0.3-0.1
	c-0.7-1.1-2-1.9-3.4-1.9c-2.8,0-4.8,2.2-4.8,5.2s2.1,5.2,4.8,5.2c1.4,0,2.7-0.8,3.4-1.9c0.1-0.1,0.2-0.1,0.3-0.1l1.7,0.9
	c0.1,0.1,0.2,0.2,0.1,0.4c-1.1,1.6-2.8,3.1-5.5,3.1C59.8,34.4,56.6,31.3,56.6,26.9z"/>
<path class="st0" d="M70.8,26.9c0-3.6,2.1-6.4,5.2-7.2c5.3-1.4,10.1,3.5,9,9c-0.7,3.4-3.4,5.7-7,5.7C73.8,34.4,70.8,31.2,70.8,26.9z
	 M82.6,26.9c0-3-1.8-5.2-4.6-5.2c-2.8,0-4.6,2.2-4.6,5.2s1.8,5.2,4.6,5.2C80.8,32.1,82.6,29.9,82.6,26.9z"/>
<path class="st0" d="M100.2,34V23l-4.4,11.1l-0.1,0.1h-0.9c0,0-0.1,0-0.1-0.1L90.3,23v11c0,0.1-0.1,0.2-0.2,0.2h-2.2
	c-0.1,0-0.2-0.1-0.2-0.2V19.8c0-0.1,0.1-0.2,0.2-0.2H91c0.1,0,0.3,0.1,0.3,0.2l3.9,10l3.8-9.9c0.1-0.1,0.2-0.2,0.3-0.2h3.2
	c0.1,0,0.2,0.1,0.2,0.2V34c0,0.1-0.1,0.2-0.2,0.2h-2.2C100.2,34.1,100.2,34.1,100.2,34z"/>
<path class="st0" d="M125.2,33.9v-14c0-0.1,0.1-0.3,0.3-0.3h9.4c0.1,0,0.3,0.1,0.3,0.3v1.7c0,0.1-0.1,0.3-0.3,0.3H128
	c-0.1,0-0.3,0.1-0.3,0.3v3.2c0,0.1,0.1,0.3,0.3,0.3h6.7c0.1,0,0.3,0.1,0.3,0.3v1.7c0,0.1-0.1,0.3-0.3,0.3H128
	c-0.1,0-0.3,0.1-0.3,0.3v3.5c0,0.1,0.1,0.3,0.3,0.3h6.9c0.1,0,0.3,0.1,0.3,0.3v1.7c0,0.1-0.1,0.3-0.3,0.3h-9.4
	C125.3,34.1,125.2,34,125.2,33.9z"/>
<path class="st0" d="M147,34l-3-5.2c0-0.1-0.1-0.1-0.2-0.1h-2.1c-0.1,0-0.3,0.1-0.3,0.3v4.9c0,0.1-0.1,0.3-0.3,0.3h-2
	c-0.1,0-0.3-0.1-0.3-0.3v-14c0-0.1,0.1-0.3,0.3-0.3h6.1c2.9,0,4.8,1.8,4.8,4.5c0,2.4-1.5,3.8-3.1,4.2c-0.2,0-0.3,0.2-0.2,0.4
	c0.6,1,2.4,3.9,3.1,5c0.1,0.2,0,0.4-0.2,0.4h-2.3C147.1,34.1,147,34.1,147,34z M147.3,24.2c0-1.4-1-2.3-2.5-2.3h-3.2
	c-0.1,0-0.3,0.1-0.3,0.3v4.1c0,0.1,0.1,0.3,0.3,0.3h3.2C146.2,26.5,147.3,25.6,147.3,24.2z"/>
<path class="st0" d="M167.1,33.9v-14c0-0.1,0.1-0.3,0.3-0.3h9.4c0.1,0,0.3,0.1,0.3,0.3v1.7c0,0.1-0.1,0.3-0.3,0.3h-6.9
	c-0.1,0-0.3,0.1-0.3,0.3v3.2c0,0.1,0.1,0.3,0.3,0.3h6.7c0.1,0,0.3,0.1,0.3,0.3v1.7c0,0.1-0.1,0.3-0.3,0.3h-6.7
	c-0.1,0-0.3,0.1-0.3,0.3v3.5c0,0.1,0.1,0.3,0.3,0.3h6.9c0.1,0,0.3,0.1,0.3,0.3v1.7c0,0.1-0.1,0.3-0.3,0.3h-9.4
	C167.2,34.1,167.1,34,167.1,33.9z"/>
<path class="st0" d="M151.7,26.8c0-4.5,3.2-7.5,7.3-7.5c2.7,0,4.4,1.4,5.5,3c0.1,0.1,0,0.3-0.1,0.3l-1.7,0.9c-0.1,0.1-0.2,0-0.3-0.1
	c-0.7-1.1-2-1.9-3.4-1.9c-2.8,0-4.8,2.2-4.8,5.2s2.1,5.2,4.8,5.2c1.4,0,2.7-0.8,3.4-1.9c0.1-0.1,0.2-0.1,0.3-0.1l1.7,0.9
	c0.1,0.1,0.2,0.2,0.1,0.4c-1.1,1.6-2.8,3.1-5.5,3.1C155,34.3,151.7,31.3,151.7,26.8z"/>
<path class="st0" d="M118.9,34V23l-4.4,11.1l-0.1,0.1h-0.9c0,0-0.1,0-0.1-0.1L109,22.9v11c0,0.1-0.1,0.2-0.2,0.2h-2.2
	c-0.1,0-0.2-0.1-0.2-0.2V19.8c0-0.1,0.1-0.2,0.2-0.2h3.2c0.1,0,0.3,0.1,0.3,0.2l3.9,10l3.8-9.9c0.1-0.1,0.2-0.2,0.3-0.2h3.2
	c0.1,0,0.2,0.1,0.2,0.2V34c0,0.1-0.1,0.2-0.2,0.2h-2.2C119,34.1,118.9,34.1,118.9,34z"/>
</svg>
